<?xml version="1.0" encoding="UTF-8"?>
<!DOCTYPE svg PUBLIC "-//W3C//DTD SVG 1.1//EN" "http://www.w3.org/Graphics/SVG/1.1/DTD/svg11.dtd">
<svg xmlns="http://www.w3.org/2000/svg" version="1.1" width="48px" height="48px" style="shape-rendering:geometricPrecision; text-rendering:geometricPrecision; image-rendering:optimizeQuality; fill-rule:evenodd; clip-rule:evenodd" xmlns:xlink="http://www.w3.org/1999/xlink">
<g><path style="opacity:1" fill="#3574d3" d="M 17.5,3.5 C 17.5589,8.0047 15.8922,11.6714 12.5,14.5C 10.5168,14.1568 9.18342,14.8235 8.5,16.5C 7.5,16.5 6.5,16.5 5.5,16.5C 5.5,12.1667 5.5,7.83333 5.5,3.5C 9.5,3.5 13.5,3.5 17.5,3.5 Z"/></g>
<g><path style="opacity:1" fill="#2a6bcd" d="M 17.5,3.5 C 20.1667,3.5 22.8333,3.5 25.5,3.5C 25.7372,7.41023 24.9039,11.0769 23,14.5C 21.3005,15.4061 19.4672,15.7394 17.5,15.5C 18.2686,19.7246 16.6019,22.3913 12.5,23.5C 11.8166,21.8235 10.4832,21.1568 8.5,21.5C 8.5,22.5 8.5,23.5 8.5,24.5C 7.5,24.5 6.5,24.5 5.5,24.5C 5.5,21.8333 5.5,19.1667 5.5,16.5C 6.5,16.5 7.5,16.5 8.5,16.5C 9.18342,18.1765 10.5168,18.8432 12.5,18.5C 12.5,17.1667 12.5,15.8333 12.5,14.5C 15.8922,11.6714 17.5589,8.0047 17.5,3.5 Z"/></g>
<g><path style="opacity:1" fill="#2465c7" d="M 25.5,3.5 C 27.1667,3.5 28.8333,3.5 30.5,3.5C 30.665,6.8499 30.4983,10.1832 30,13.5C 28.5502,15.7571 27.3835,18.0905 26.5,20.5C 24.0744,18.6205 21.4077,17.2872 18.5,16.5C 17.8969,21.6186 18.5636,26.2853 20.5,30.5C 19.791,31.404 18.791,31.7373 17.5,31.5C 17.6567,30.1266 17.49,28.7932 17,27.5C 15.6703,28.5822 14.1703,29.2488 12.5,29.5C 12.0831,28.8761 11.4164,28.5427 10.5,28.5C 9.28665,28.7472 8.61998,29.4138 8.5,30.5C 7.5,30.5 6.5,30.5 5.5,30.5C 5.5,28.5 5.5,26.5 5.5,24.5C 6.5,24.5 7.5,24.5 8.5,24.5C 8.91695,25.1239 9.58362,25.4573 10.5,25.5C 11.7133,25.2528 12.38,24.5862 12.5,23.5C 16.6019,22.3913 18.2686,19.7246 17.5,15.5C 19.4672,15.7394 21.3005,15.4061 23,14.5C 24.9039,11.0769 25.7372,7.41023 25.5,3.5 Z"/></g>
<g><path style="opacity:1" fill="#1f60c4" d="M 30.5,3.5 C 33.1667,3.5 35.8333,3.5 38.5,3.5C 37.7659,4.70792 37.4326,6.04125 37.5,7.5C 36.5,7.5 35.5,7.5 34.5,7.5C 34.1568,9.48324 34.8235,10.8166 36.5,11.5C 36.5,12.5 36.5,13.5 36.5,14.5C 34.8235,15.1834 34.1568,16.5168 34.5,18.5C 32.1062,23.0671 29.1062,27.2337 25.5,31C 24.0715,31.5791 22.7382,31.4124 21.5,30.5C 23.8123,28.364 26.3123,26.364 29,24.5C 29.2793,22.5878 28.4459,21.2544 26.5,20.5C 27.3835,18.0905 28.5502,15.7571 30,13.5C 30.4983,10.1832 30.665,6.8499 30.5,3.5 Z"/></g>
<g><path style="opacity:1" fill="#f4f7fc" d="M 8.5,7.5 C 9.83333,7.5 11.1667,7.5 12.5,7.5C 12.5,8.83333 12.5,10.1667 12.5,11.5C 11.1667,11.5 9.83333,11.5 8.5,11.5C 8.5,10.1667 8.5,8.83333 8.5,7.5 Z"/></g>
<g><path style="opacity:1" fill="#f2f6fb" d="M 37.5,7.5 C 38.1239,7.91695 38.4573,8.58362 38.5,9.5C 38.2528,10.7133 37.5862,11.38 36.5,11.5C 34.8235,10.8166 34.1568,9.48324 34.5,7.5C 35.5,7.5 36.5,7.5 37.5,7.5 Z"/></g>
<g><path style="opacity:1" fill="#f3f6fc" d="M 12.5,14.5 C 12.5,15.8333 12.5,17.1667 12.5,18.5C 10.5168,18.8432 9.18342,18.1765 8.5,16.5C 9.18342,14.8235 10.5168,14.1568 12.5,14.5 Z"/></g>
<g><path style="opacity:1" fill="#f2f5fb" d="M 36.5,14.5 C 38.1765,15.1834 38.8432,16.5168 38.5,18.5C 37.1667,18.5 35.8333,18.5 34.5,18.5C 34.1568,16.5168 34.8235,15.1834 36.5,14.5 Z"/></g>
<g><path style="opacity:1" fill="#f7f9fc" d="M 26.5,20.5 C 28.4459,21.2544 29.2793,22.5878 29,24.5C 26.3123,26.364 23.8123,28.364 21.5,30.5C 21.1667,30.5 20.8333,30.5 20.5,30.5C 18.5636,26.2853 17.8969,21.6186 18.5,16.5C 21.4077,17.2872 24.0744,18.6205 26.5,20.5 Z"/></g>
<g><path style="opacity:1" fill="#f3f6fc" d="M 12.5,23.5 C 12.38,24.5862 11.7133,25.2528 10.5,25.5C 9.58362,25.4573 8.91695,25.1239 8.5,24.5C 8.5,23.5 8.5,22.5 8.5,21.5C 10.4832,21.1568 11.8166,21.8235 12.5,23.5 Z"/></g>
<g><path style="opacity:1" fill="#185cc2" d="M 38.5,3.5 C 39.5,3.5 40.5,3.5 41.5,3.5C 41.5,9.83333 41.5,16.1667 41.5,22.5C 40.7281,23.6935 39.7281,24.6935 38.5,25.5C 38.5,24.1667 38.5,22.8333 38.5,21.5C 37.1667,21.5 35.8333,21.5 34.5,21.5C 34.5,22.5 34.5,23.5 34.5,24.5C 31.3694,27.1288 28.3694,29.9621 25.5,33C 21.376,35.3972 17.0427,37.2306 12.5,38.5C 12.5,37.5 12.5,36.5 12.5,35.5C 10.901,35.2322 9.56764,35.5655 8.5,36.5C 7.5,36.5 6.5,36.5 5.5,36.5C 5.5,34.5 5.5,32.5 5.5,30.5C 6.5,30.5 7.5,30.5 8.5,30.5C 9.18342,32.1765 10.5168,32.8432 12.5,32.5C 12.5,31.5 12.5,30.5 12.5,29.5C 14.1703,29.2488 15.6703,28.5822 17,27.5C 17.49,28.7932 17.6567,30.1266 17.5,31.5C 18.791,31.7373 19.791,31.404 20.5,30.5C 20.8333,30.5 21.1667,30.5 21.5,30.5C 22.7382,31.4124 24.0715,31.5791 25.5,31C 29.1062,27.2337 32.1062,23.0671 34.5,18.5C 35.8333,18.5 37.1667,18.5 38.5,18.5C 38.8432,16.5168 38.1765,15.1834 36.5,14.5C 36.5,13.5 36.5,12.5 36.5,11.5C 37.5862,11.38 38.2528,10.7133 38.5,9.5C 38.4573,8.58362 38.1239,7.91695 37.5,7.5C 37.4326,6.04125 37.7659,4.70792 38.5,3.5 Z"/></g>
<g><path style="opacity:1" fill="#f2f5fb" d="M 38.5,25.5 C 36.901,25.7678 35.5676,25.4345 34.5,24.5C 34.5,23.5 34.5,22.5 34.5,21.5C 35.8333,21.5 37.1667,21.5 38.5,21.5C 38.5,22.8333 38.5,24.1667 38.5,25.5 Z"/></g>
<g><path style="opacity:1" fill="#1055bd" d="M 41.5,22.5 C 41.5,29.5 41.5,36.5 41.5,43.5C 32.8333,43.5 24.1667,43.5 15.5,43.5C 18.7735,42.12 22.1068,40.62 25.5,39C 28.3785,36.6148 31.3785,34.4482 34.5,32.5C 35.8333,32.5 37.1667,32.5 38.5,32.5C 38.7678,30.901 38.4345,29.5676 37.5,28.5C 38.1098,27.609 38.4431,26.609 38.5,25.5C 39.7281,24.6935 40.7281,23.6935 41.5,22.5 Z"/></g>
<g><path style="opacity:0.999" fill="#1459c0" d="M 34.5,24.5 C 35.5676,25.4345 36.901,25.7678 38.5,25.5C 38.4431,26.609 38.1098,27.609 37.5,28.5C 36.5,28.5 35.5,28.5 34.5,28.5C 34.5,29.8333 34.5,31.1667 34.5,32.5C 31.3785,34.4482 28.3785,36.6148 25.5,39C 22.1068,40.62 18.7735,42.12 15.5,43.5C 12.1667,43.5 8.83333,43.5 5.5,43.5C 5.5,41.1667 5.5,38.8333 5.5,36.5C 6.5,36.5 7.5,36.5 8.5,36.5C 8.5,37.5 8.5,38.5 8.5,39.5C 10.099,39.7678 11.4324,39.4345 12.5,38.5C 17.0427,37.2306 21.376,35.3972 25.5,33C 28.3694,29.9621 31.3694,27.1288 34.5,24.5 Z"/></g>
<g><path style="opacity:1" fill="#f2f6fb" d="M 12.5,29.5 C 12.5,30.5 12.5,31.5 12.5,32.5C 10.5168,32.8432 9.18342,32.1765 8.5,30.5C 8.61998,29.4138 9.28665,28.7472 10.5,28.5C 11.4164,28.5427 12.0831,28.8761 12.5,29.5 Z"/></g>
<g><path style="opacity:1" fill="#f1f5fb" d="M 37.5,28.5 C 38.4345,29.5676 38.7678,30.901 38.5,32.5C 37.1667,32.5 35.8333,32.5 34.5,32.5C 34.5,31.1667 34.5,29.8333 34.5,28.5C 35.5,28.5 36.5,28.5 37.5,28.5 Z"/></g>
<g><path style="opacity:1" fill="#f2f5fb" d="M 12.5,38.5 C 11.4324,39.4345 10.099,39.7678 8.5,39.5C 8.5,38.5 8.5,37.5 8.5,36.5C 9.56764,35.5655 10.901,35.2322 12.5,35.5C 12.5,36.5 12.5,37.5 12.5,38.5 Z"/></g>
<g><path style="opacity:1" fill="#f1f5fb" d="M 34.5,35.5 C 35.8333,35.5 37.1667,35.5 38.5,35.5C 38.5,36.8333 38.5,38.1667 38.5,39.5C 37.1667,39.5 35.8333,39.5 34.5,39.5C 34.5,38.1667 34.5,36.8333 34.5,35.5 Z"/></g>
</svg>
